<?xml version="1.0" encoding="utf-8"?>
<!-- Generator: Adobe Illustrator 24.1.1, SVG Export Plug-In . SVG Version: 6.00 Build 0)  -->
<svg version="1.1" id="Layer_1" xmlns="http://www.w3.org/2000/svg" xmlns:xlink="http://www.w3.org/1999/xlink" x="0px" y="0px"
	 viewBox="0 0 711 102.1" style="enable-background:new 0 0 711 102.1;" xml:space="preserve">
<style type="text/css">
	.st0{fill:#000080;}
	.st1{fill:#FFFFFF;}
	.st2{enable-background:new    ;}
	.st3{fill:none;stroke:#808080;stroke-width:0.79;stroke-miterlimit:10;stroke-dasharray:2.99;}
	.st4{fill:#3A5D93;}
	.st5{fill:#E6E7E8;}
</style>
<g id="Layer_1-2">
	<path class="st0" d="M139.2,50.7c0-14.6-11.8-26.5-26.5-26.5c-14.6,0-26.5,11.8-26.5,26.5s11.8,26.5,26.5,26.5c0,0,0,0,0,0
		C127.4,77.1,139.2,65.3,139.2,50.7"/>
	<path class="st1" d="M131.5,39.7c0-4.3-3.5-7.8-7.8-7.8c-4.3,0-7.8,3.5-7.8,7.8s3.5,7.8,7.8,7.8l0,0C128,47.5,131.5,44,131.5,39.7"
		/>
	<path class="st0" d="M147,24.2c0-4.3-3.5-7.8-7.8-7.8s-7.8,3.5-7.8,7.8s3.5,7.8,7.8,7.8S147,28.5,147,24.2"/>
	<g class="st2">
		<path class="st1" d="M96,63.9V46.9h2.3v15h8.4v2H96z"/>
		<path class="st1" d="M117.1,63.9v-1.8c-1,1.4-2.3,2.1-3.9,2.1c-0.7,0-1.4-0.1-2-0.4c-0.6-0.3-1.1-0.6-1.4-1.1
			c-0.3-0.4-0.5-0.9-0.6-1.6c-0.1-0.4-0.1-1.1-0.1-2v-7.7h2.1v6.9c0,1.1,0,1.8,0.1,2.2c0.1,0.6,0.4,1,0.8,1.3c0.4,0.3,1,0.5,1.6,0.5
			s1.2-0.2,1.8-0.5c0.6-0.3,0.9-0.8,1.2-1.3c0.2-0.6,0.3-1.4,0.3-2.4v-6.6h2.1v12.4H117.1z"/>
		<path class="st1" d="M130.4,62.4c-0.8,0.7-1.5,1.1-2.2,1.4c-0.7,0.3-1.5,0.4-2.3,0.4c-1.4,0-2.4-0.3-3.1-1
			c-0.7-0.7-1.1-1.5-1.1-2.5c0-0.6,0.1-1.2,0.4-1.7s0.6-0.9,1.1-1.2c0.4-0.3,0.9-0.5,1.5-0.7c0.4-0.1,1-0.2,1.9-0.3
			c1.7-0.2,2.9-0.4,3.7-0.7c0-0.3,0-0.5,0-0.5c0-0.9-0.2-1.5-0.6-1.8c-0.5-0.5-1.3-0.7-2.4-0.7c-1,0-1.7,0.2-2.2,0.5s-0.8,1-1,1.8
			l-2-0.3c0.2-0.9,0.5-1.6,0.9-2.1c0.4-0.5,1-1,1.9-1.2c0.8-0.3,1.7-0.4,2.8-0.4c1.1,0,1.9,0.1,2.6,0.4c0.7,0.2,1.1,0.6,1.5,0.9
			c0.3,0.4,0.5,0.9,0.7,1.4c0.1,0.4,0.1,1,0.1,1.9v2.8c0,1.9,0,3.2,0.1,3.7c0.1,0.5,0.3,1,0.5,1.5h-2.2
			C130.6,63.5,130.4,63,130.4,62.4z M130.2,57.7c-0.8,0.3-1.9,0.6-3.4,0.8c-0.9,0.1-1.5,0.3-1.8,0.4c-0.4,0.2-0.6,0.4-0.8,0.7
			c-0.2,0.3-0.3,0.6-0.3,1c0,0.6,0.2,1,0.6,1.4c0.4,0.4,1,0.6,1.9,0.6c0.8,0,1.5-0.2,2.2-0.5c0.6-0.4,1.1-0.8,1.4-1.4
			c0.2-0.5,0.3-1.2,0.3-2.1V57.7z"/>
	</g>
	<path class="st3" d="M143.3,35.1c8.6,16.8,1.9,37.5-15,46s-37.5,1.9-46-15s-1.9-37.5,15-46c10.9-5.6,23.9-4.9,34.2,1.8"/>
</g>
<g id="Layer_3">
	<rect y="15" class="st4" width="70" height="70"/>
	<path class="st1" d="M37,28.2c1.9,0.1,3.8,0.8,5.3,2.1v-9.4c-1.7-0.4-3.4-0.6-5.1-0.7c-7.4,0-13.4,5.4-13.4,12.3
		s5.4,12.1,12.7,12.1c1.9,0,3.8-0.3,5.7-0.8v-9.2c-1.6,1.2-3.5,2-5.5,2.1c-2.3,0.1-4.2-1.7-4.3-4c0-0.1,0-0.2,0-0.2
		C32.6,30.1,34.5,28.2,37,28.2C37,28.2,37,28.2,37,28.2z"/>
	<path class="st1" d="M35.9,65.3l28.8-15.4c0.6-0.3,0.9-0.9,0.9-1.5V37.7c0-0.1-0.1-0.1-0.1-0.1c0,0,0,0-0.1,0L35.9,53.3
		c-0.6,0.3-1.3,0.3-1.9,0L4.7,37.5c-0.1,0-0.2,0-0.2,0.1c0,0,0,0,0,0.1v10.7c0,0.6,0.4,1.2,0.9,1.5l28.8,15.4
		C34.7,65.6,35.3,65.6,35.9,65.3z"/>
	<path class="st1" d="M35.5,79.6l15.6-8.7c0.3-0.2,0.5-0.6,0.5-1v-9.5c0-0.1-0.1-0.1-0.1-0.1l-16,8.9c-0.3,0.2-0.7,0.2-1,0l-16-8.9
		c0,0-0.1,0-0.1,0.1v9.5c0,0.4,0.2,0.8,0.5,1l15.6,8.7C34.8,79.8,35.2,79.8,35.5,79.6z"/>
</g>
<g class="st2">
	<path class="st5" d="M162.3,59.3v-18c0-9.2,2.3-15.9,6.9-20.2c4.6-4.3,10.8-6.4,18.5-6.4c4.9,0,9.2,0.9,12.9,2.6
		c3.7,1.7,6.6,4.2,8.6,7.5s3,7,3,11.2v0.3h-7.6V36c0-4.5-1.5-8.1-4.6-10.7s-7.2-3.9-12.4-3.9c-5.8,0-10.2,1.6-13.3,4.7
		c-3,3.2-4.6,8.3-4.6,15.5v18.1c0,13,6,19.4,17.9,19.4c5.2,0,9.4-1.3,12.4-3.9s4.5-6.1,4.5-10.6v-0.4h7.4v0.4
		c0,6.5-2.2,11.7-6.6,15.5s-10.3,5.7-17.8,5.7c-7.8,0-13.9-2.1-18.5-6.4C164.6,75.3,162.3,68.5,162.3,59.3z"/>
	<path class="st5" d="M220.3,64.8V54.3c0-7.3,1.9-12.6,5.6-15.9c3.7-3.4,8.7-5,14.9-5c6.1,0,10.9,1.7,14.6,5
		c3.7,3.4,5.5,8.7,5.5,15.9v10.5c0,7.3-1.8,12.6-5.5,15.9c-3.7,3.4-8.5,5-14.6,5c-6.2,0-11.2-1.7-14.9-5
		C222.1,77.4,220.3,72.1,220.3,64.8z M253.7,64.4v-9.7c0-5.6-1.2-9.5-3.5-11.7c-2.3-2.3-5.5-3.4-9.5-3.4c-4.1,0-7.4,1.1-9.7,3.4
		c-2.4,2.3-3.6,6.2-3.6,11.7v9.7c0,5.6,1.2,9.6,3.6,11.8c2.4,2.3,5.6,3.4,9.7,3.4c4,0,7.1-1.1,9.5-3.4C252.5,74,253.7,70,253.7,64.4
		z"/>
	<path class="st5" d="M276.6,34.1v6.2c1.5-2.2,3.5-3.9,6-5.1c2.5-1.2,5.3-1.8,8.3-1.8c3.6,0,6.7,0.7,9.3,2.2c2.6,1.5,4.6,3.6,6,6.3
		c3.5-5.7,8.9-8.6,16.1-8.6c5.7,0,10.1,1.6,13.2,4.8c3.1,3.2,4.7,7.6,4.7,13.4v33.6h-7.1V52.6c0-4.2-1.1-7.5-3.2-9.7
		c-2.1-2.2-5.1-3.3-9-3.3c-3.9,0-7,1.1-9.2,3.4c-2.2,2.3-3.3,5.4-3.3,9.3v32.8h-7.2V52.6c0-4.2-1.1-7.5-3.2-9.7
		c-2.1-2.2-5.1-3.3-9-3.3c-3.8,0-6.8,1.1-9.1,3.4c-2.3,2.3-3.4,5.5-3.4,9.6v32.5h-7.1V34.1H276.6z"/>
	<path class="st5" d="M357.9,34.1v6.2c1.5-2.2,3.5-3.9,6-5.1c2.5-1.2,5.3-1.8,8.3-1.8c3.6,0,6.7,0.7,9.3,2.2c2.6,1.5,4.6,3.6,6,6.3
		c3.5-5.7,8.9-8.6,16.1-8.6c5.7,0,10.1,1.6,13.2,4.8s4.7,7.6,4.7,13.4v33.6h-7.1V52.6c0-4.2-1.1-7.5-3.2-9.7c-2.1-2.2-5.1-3.3-9-3.3
		c-3.9,0-7,1.1-9.2,3.4c-2.2,2.3-3.3,5.4-3.3,9.3v32.8h-7.2V52.6c0-4.2-1.1-7.5-3.2-9.7s-5.1-3.3-9-3.3c-3.8,0-6.8,1.1-9.1,3.4
		s-3.4,5.5-3.4,9.6v32.5h-7.1V34.1H357.9z"/>
	<path class="st5" d="M468.4,50.4v34.8h-7v-5.4c-1.6,2.1-3.6,3.6-6,4.6c-2.4,1-5.3,1.5-8.7,1.5c-5.6,0-9.9-1.3-13-3.8
		s-4.6-6.3-4.6-11.2c0-4.6,1.6-8.1,4.7-10.7s7.5-3.9,13.1-3.9h14.4v-5.8c0-3.7-1-6.5-3.1-8.4c-2.1-1.9-5.1-2.8-8.9-2.8
		c-3.6,0-6.5,0.8-8.5,2.4s-3.1,3.7-3.1,6.5v0.3h-6.9v-0.5c0-4.4,1.6-7.9,4.9-10.5s7.8-3.9,13.5-3.9c6.2,0,11,1.4,14.3,4.3
		C466.7,40.6,468.4,44.8,468.4,50.4z M461.3,67.8v-6.7H448c-7.8,0-11.7,3.2-11.7,9.5c0,6.4,3.9,9.6,11.6,9.6c4.7,0,8.1-1,10.2-3.1
		C460.2,75.1,461.3,72,461.3,67.8z"/>
	<path class="st5" d="M485.9,34.1v6.2c1.5-2.3,3.5-4,6-5.1c2.5-1.1,5.3-1.7,8.3-1.7c5.7,0,10,1.6,13,4.8c3,3.2,4.6,7.6,4.6,13.4
		v33.6h-7.1V52.6c0-4.2-1.1-7.5-3.2-9.7c-2.2-2.2-5.2-3.3-9-3.3c-3.8,0-6.8,1.1-9.1,3.4c-2.3,2.3-3.4,5.5-3.4,9.6v32.5h-7.1V34.1
		H485.9z"/>
	<path class="st5" d="M526.7,64.8V54.3c0-7.2,1.7-12.5,5-15.9c3.4-3.4,7.7-5.1,13-5.1c6.4,0,11.2,2.6,14.3,7.9V15.6h7.2v69.5h-7.2
		v-6.8c-1.4,2.4-3.3,4.2-5.7,5.5s-5.3,1.9-8.6,1.9c-5.2,0-9.5-1.7-12.9-5.1C528.3,77.3,526.7,72,526.7,64.8z M558.9,64.3v-9
		c0-4.8-1.1-8.6-3.2-11.4c-2.2-2.9-5.4-4.3-9.6-4.3c-8.1,0-12.2,5-12.2,15.1v9.7c0,10.1,3.9,15.2,11.7,15.2c4.4,0,7.7-1.4,10-4.2
		C557.8,72.5,558.9,68.9,558.9,64.3z"/>
</g>
<g class="st2">
	<path class="st5" d="M584.8,15.6v62.9h36v6.7h-43.7V15.6H584.8z"/>
</g>
<g class="st2">
	<path class="st5" d="M623.6,66.4V34.1h7.1v31.4c0,4.7,0.9,8.2,2.8,10.6c1.9,2.4,5.1,3.5,9.5,3.5s7.6-1.1,9.5-3.4
		c1.9-2.3,2.8-5.8,2.8-10.7V34.1h7.1v32.3c0,6.2-1.6,11-4.9,14.4c-3.2,3.3-8.2,5-14.7,5c-6.4,0-11.3-1.7-14.5-5
		C625.2,77.4,623.6,72.6,623.6,66.4z"/>
	<path class="st5" d="M709.4,50.4v34.8h-7v-5.4c-1.6,2.1-3.6,3.6-6,4.6c-2.4,1-5.3,1.5-8.7,1.5c-5.6,0-9.9-1.3-13-3.8
		s-4.6-6.3-4.6-11.2c0-4.6,1.6-8.1,4.7-10.7s7.5-3.9,13.1-3.9h14.4v-5.8c0-3.7-1-6.5-3.1-8.4c-2.1-1.9-5.1-2.8-8.9-2.8
		c-3.6,0-6.5,0.8-8.5,2.4s-3.1,3.7-3.1,6.5v0.3h-6.9v-0.5c0-4.4,1.6-7.9,4.9-10.5s7.8-3.9,13.5-3.9c6.2,0,11,1.4,14.3,4.3
		C707.7,40.6,709.4,44.8,709.4,50.4z M702.3,67.8v-6.7H689c-7.8,0-11.7,3.2-11.7,9.5c0,6.4,3.9,9.6,11.6,9.6c4.7,0,8.1-1,10.2-3.1
		C701.2,75.1,702.3,72,702.3,67.8z"/>
</g>
</svg>
