<svg id="Layer_1" data-name="Layer 1" xmlns="http://www.w3.org/2000/svg" viewBox="0 0 710.98 102.06"><defs><style>.cls-1{fill:navy;}.cls-2,.cls-3{fill:#fff;}.cls-3{isolation:isolate;font-size:23.83px;font-family:ArialMT, Arial;}.cls-4{fill:none;stroke:gray;stroke-miterlimit:10;stroke-width:0.79px;stroke-dasharray:2.99;}.cls-5{fill:#3a5d93;}.cls-6{font-size:100.75px;fill:#e6e7e8;font-family:D-DIN;letter-spacing:-0.05em;}.cls-7{letter-spacing:-0.08em;}.cls-8{letter-spacing:-0.05em;}</style></defs><g id="Layer_1-2" data-name="Layer 1"><path class="cls-1" d="M143.22,39.54A26.48,26.48,0,1,0,116.75,66a26.49,26.49,0,0,0,26.47-26.48" transform="translate(-4 11.13)"/><path class="cls-2" d="M135.47,28.57a7.75,7.75,0,1,0-7.75,7.75,7.75,7.75,0,0,0,7.75-7.75" transform="translate(-4 11.13)"/><path class="cls-1" d="M151,13.07a7.75,7.75,0,1,0-7.75,7.75A7.75,7.75,0,0,0,151,13.07" transform="translate(-4 11.13)"/><text class="cls-3" transform="translate(94.22 63.91)">Lua</text><path class="cls-4" d="M147.25,24a34.23,34.23,0,1,1-11.86-13.17" transform="translate(-4 11.13)"/></g><g id="Layer_3" data-name="Layer 3"><rect class="cls-5" y="14.99" width="69.98" height="69.98"/><path class="cls-2" d="M41,17.08a8.75,8.75,0,0,1,5.26,2.06V9.79a22.1,22.1,0,0,0-5.06-.67c-7.37,0-13.35,5.41-13.35,12.34S33.23,33.6,40.6,33.6a24.21,24.21,0,0,0,5.66-.77V23.65A9.36,9.36,0,0,1,40.8,25.7a4.14,4.14,0,0,1-4.25-4.27A4.38,4.38,0,0,1,41,17.08Z" transform="translate(-4 11.13)"/><path class="cls-2" d="M39.86,54.16,68.61,38.74a1.74,1.74,0,0,0,.92-1.54V26.54a.14.14,0,0,0-.21-.12L39.93,42.19a2,2,0,0,1-1.88,0L8.66,26.42a.14.14,0,0,0-.21.12V37.2a1.74,1.74,0,0,0,.92,1.54L38.12,54.16A1.85,1.85,0,0,0,39.86,54.16Z" transform="translate(-4 11.13)"/><path class="cls-2" d="M39.46,68.44l15.61-8.68a1.16,1.16,0,0,0,.5-1V49.3c0-.07-.06-.11-.11-.08l-16,8.91a.94.94,0,0,1-1,0l-16-8.91c-.05,0-.11,0-.11.08v9.47a1.17,1.17,0,0,0,.5,1l15.61,8.68A.85.85,0,0,0,39.46,68.44Z" transform="translate(-4 11.13)"/></g><text class="cls-6" transform="translate(155.42 85.14) scale(1.04 1)">Command<tspan class="cls-7" x="397.46" y="0">L</tspan><tspan class="cls-8" x="442.6" y="0">ua</tspan></text></svg>